HIERARCHY
ROOT Hips
{
	OFFSET 0.053599 88.859886 3.107447
	CHANNELS 6 Xposition Yposition Zposition Zrotation Yrotation Xrotation 
	JOINT Spine
	{
		OFFSET -0.000000 8.814246 -2.080107
		CHANNELS 3 Zrotation Yrotation Xrotation
		JOINT Spine1
		{
			OFFSET 0.000000 8.844141 0.000000
			CHANNELS 3 Zrotation Yrotation Xrotation
			JOINT Spine2
			{
				OFFSET -0.000000 11.682268 0.000000
				CHANNELS 3 Zrotation Yrotation Xrotation
				JOINT Spine3
				{
					OFFSET 0.000000 11.746700 0.000000
					CHANNELS 3 Zrotation Yrotation Xrotation
					JOINT Neck
					{
						OFFSET -0.000000 17.658264 -0.000000
						CHANNELS 3 Zrotation Yrotation Xrotation
						JOINT Neck1
						{
							OFFSET -0.000000 5.101515 -0.000000
							CHANNELS 3 Zrotation Yrotation Xrotation
							JOINT Head
							{
								OFFSET 0.000000 5.101515 0.000000
								CHANNELS 3 Zrotation Yrotation Xrotation
								JOINT HeadEnd
								{
									OFFSET 0.000000 11.655085 0.000000
									CHANNELS 3 Zrotation Yrotation Xrotation
									End Site
									{
										OFFSET 0.000000 0.000000 0.000000
									}
								}
							}
						}
					}
					JOINT RightShoulder
					{
						OFFSET -2.625389 11.175210 0.000000
						CHANNELS 3 Zrotation Yrotation Xrotation
						JOINT RightArm
						{
							OFFSET -0.000000 10.434715 -0.000000
							CHANNELS 3 Zrotation Yrotation Xrotation
							JOINT RightForeArm
							{
								OFFSET -0.000000 29.628420 0.000000
								CHANNELS 3 Zrotation Yrotation Xrotation
								JOINT RightHand
								{
									OFFSET -0.000000 22.857611 0.000000
									CHANNELS 3 Zrotation Yrotation Xrotation
									JOINT RightHandThumb1
									{
										OFFSET -2.867323 3.959563 2.944291
										CHANNELS 3 Zrotation Yrotation Xrotation
										JOINT RightHandThumb2
										{
											OFFSET 0.000000 3.350399 0.000000
											CHANNELS 3 Zrotation Yrotation Xrotation
											JOINT RightHandThumb3
											{
												OFFSET 0.000000 3.756509 -0.000000
												CHANNELS 3 Zrotation Yrotation Xrotation
												JOINT RightHandThumb4
												{
													OFFSET 0.000000 3.147345 0.000000
													CHANNELS 3 Zrotation Yrotation Xrotation
													End Site
													{
														OFFSET 0.000000 0.000000 0.000000
													}
												}
											}
										}
									}
									JOINT RightHandIndex1
									{
										OFFSET -0.086752 10.030893 2.345280
										CHANNELS 3 Zrotation Yrotation Xrotation
										JOINT RightHandIndex2
										{
											OFFSET -0.000000 4.061090 0.000000
											CHANNELS 3 Zrotation Yrotation Xrotation
											JOINT RightHandIndex3
											{
												OFFSET -0.000000 3.248873 0.000000
												CHANNELS 3 Zrotation Yrotation Xrotation
												JOINT RightHandIndex4
												{
													OFFSET 0.000000 2.639709 -0.000000
													CHANNELS 3 Zrotation Yrotation Xrotation
													End Site
													{
														OFFSET 0.000000 0.000000 0.000000
													}
												}
											}
										}
									}
									JOINT RightHandMiddle1
									{
										OFFSET 0.104102 9.502952 0.006768
										CHANNELS 3 Zrotation Yrotation Xrotation
										JOINT RightHandMiddle2
										{
											OFFSET 0.000000 4.568727 0.000000
											CHANNELS 3 Zrotation Yrotation Xrotation
											JOINT RightHandMiddle3
											{
												OFFSET 0.000000 3.654981 -0.000000
												CHANNELS 3 Zrotation Yrotation Xrotation
												JOINT RightHandMiddle4
												{
													OFFSET -0.000000 2.741236 -0.000000
													CHANNELS 3 Zrotation Yrotation Xrotation
													End Site
													{
														OFFSET 0.000000 0.000000 0.000000
													}
												}
											}
										}
									}
									JOINT RightHandRing1
									{
										OFFSET 0.086752 8.921708 -2.267442
										CHANNELS 3 Zrotation Yrotation Xrotation
										JOINT RightHandRing2
										{
											OFFSET -0.000000 4.061090 0.000000
											CHANNELS 3 Zrotation Yrotation Xrotation
											JOINT RightHandRing3
											{
												OFFSET 0.000000 3.654981 -0.000000
												CHANNELS 3 Zrotation Yrotation Xrotation
												JOINT RightHandRing4
												{
													OFFSET 0.000000 2.741236 -0.000000
													CHANNELS 3 Zrotation Yrotation Xrotation
													End Site
													{
														OFFSET 0.000000 0.000000 0.000000
													}
												}
											}
										}
									}
									JOINT RightHandPinky1
									{
										OFFSET -0.173504 7.976997 -4.467199
										CHANNELS 3 Zrotation Yrotation Xrotation
										JOINT RightHandPinky2
										{
											OFFSET 0.000000 3.350399 -0.000000
											CHANNELS 3 Zrotation Yrotation Xrotation
											JOINT RightHandPinky3
											{
												OFFSET -0.000000 2.842763 0.000000
												CHANNELS 3 Zrotation Yrotation Xrotation
												JOINT RightHandPinky4
												{
													OFFSET -0.000000 2.639709 0.000000
													CHANNELS 3 Zrotation Yrotation Xrotation
													End Site
													{
														OFFSET 0.000000 0.000000 0.000000
													}
												}
											}
										}
									}
									JOINT RightForeArmEnd
									{
										OFFSET 0.000000 0.000000 0.000000
										CHANNELS 3 Zrotation Yrotation Xrotation
										End Site
										{
											OFFSET 0.000000 0.000000 0.000000
										}
									}
								}
								JOINT RightArmEnd
								{
									OFFSET 0.000000 0.000000 0.000000
									CHANNELS 3 Zrotation Yrotation Xrotation
									End Site
									{
										OFFSET 0.000000 0.000000 0.000000
									}
								}
							}
						}
					}
					JOINT LeftShoulder
					{
						OFFSET 2.625389 11.175210 0.000000
						CHANNELS 3 Zrotation Yrotation Xrotation
						JOINT LeftArm
						{
							OFFSET 0.000000 10.813635 -0.000000
							CHANNELS 3 Zrotation Yrotation Xrotation
							JOINT LeftForeArm
							{
								OFFSET 0.000000 28.724781 0.000000
								CHANNELS 3 Zrotation Yrotation Xrotation
								JOINT LeftHand
								{
									OFFSET 0.644384 25.716167 -0.328871
									CHANNELS 3 Zrotation Yrotation Xrotation
									JOINT LeftHandThumb1
									{
										OFFSET 2.867323 3.959563 2.944291
										CHANNELS 3 Zrotation Yrotation Xrotation
										JOINT LeftHandThumb2
										{
											OFFSET 0.000000 3.350399 0.000000
											CHANNELS 3 Zrotation Yrotation Xrotation
											JOINT LeftHandThumb3
											{
												OFFSET -0.000000 3.756509 0.000000
												CHANNELS 3 Zrotation Yrotation Xrotation
												JOINT LeftHandThumb4
												{
													OFFSET -0.000000 3.100000 0.000000
													CHANNELS 3 Zrotation Yrotation Xrotation
													End Site
													{
														OFFSET 0.000000 0.000000 0.000000
													}
												}
											}
										}
									}
									JOINT LeftHandIndex1
									{
										OFFSET 0.086752 10.030893 2.345280
										CHANNELS 3 Zrotation Yrotation Xrotation
										JOINT LeftHandIndex2
										{
											OFFSET -0.000000 4.061090 -0.000000
											CHANNELS 3 Zrotation Yrotation Xrotation
											JOINT LeftHandIndex3
											{
												OFFSET 0.000000 3.248873 -0.000000
												CHANNELS 3 Zrotation Yrotation Xrotation
												JOINT LeftHandIndex4
												{
													OFFSET 0.000000 2.639709 -0.000000
													CHANNELS 3 Zrotation Yrotation Xrotation
													End Site
													{
														OFFSET 0.000000 0.000000 0.000000
													}
												}
											}
										}
									}
									JOINT LeftHandMiddle1
									{
										OFFSET -0.104102 9.502952 0.006768
										CHANNELS 3 Zrotation Yrotation Xrotation
										JOINT LeftHandMiddle2
										{
											OFFSET -0.000000 4.568727 -0.000000
											CHANNELS 3 Zrotation Yrotation Xrotation
											JOINT LeftHandMiddle3
											{
												OFFSET 0.000000 3.654981 0.000000
												CHANNELS 3 Zrotation Yrotation Xrotation
												JOINT LeftHandMiddle4
												{
													OFFSET 0.000000 2.741236 -0.000000
													CHANNELS 3 Zrotation Yrotation Xrotation
													End Site
													{
														OFFSET 0.000000 0.000000 0.000000
													}
												}
											}
										}
									}
									JOINT LeftHandRing1
									{
										OFFSET -0.086752 8.921708 -2.267442
										CHANNELS 3 Zrotation Yrotation Xrotation
										JOINT LeftHandRing2
										{
											OFFSET 0.000000 4.061090 0.000000
											CHANNELS 3 Zrotation Yrotation Xrotation
											JOINT LeftHandRing3
											{
												OFFSET 0.000000 3.654981 0.000000
												CHANNELS 3 Zrotation Yrotation Xrotation
												JOINT LeftHandRing4
												{
													OFFSET 0.000000 2.741236 0.000000
													CHANNELS 3 Zrotation Yrotation Xrotation
													End Site
													{
														OFFSET 0.000000 0.000000 0.000000
													}
												}
											}
										}
									}
									JOINT LeftHandPinky1
									{
										OFFSET 0.173504 7.976997 -4.467199
										CHANNELS 3 Zrotation Yrotation Xrotation
										JOINT LeftHandPinky2
										{
											OFFSET -0.000000 3.350399 -0.000000
											CHANNELS 3 Zrotation Yrotation Xrotation
											JOINT LeftHandPinky3
											{
												OFFSET 0.000000 2.842763 0.000000
												CHANNELS 3 Zrotation Yrotation Xrotation
												JOINT LeftHandPinky4
												{
													OFFSET -0.000000 2.639709 -0.000000
													CHANNELS 3 Zrotation Yrotation Xrotation
													End Site
													{
														OFFSET 0.000000 0.000000 0.000000
													}
												}
											}
										}
									}
									JOINT LeftForeArmEnd
									{
										OFFSET 0.000000 0.000000 0.000000
										CHANNELS 3 Zrotation Yrotation Xrotation
										End Site
										{
											OFFSET 0.000000 0.000000 0.000000
										}
									}
								}
								JOINT LeftArmEnd
								{
									OFFSET 0.000000 0.000000 0.000000
									CHANNELS 3 Zrotation Yrotation Xrotation
									End Site
									{
										OFFSET 0.000000 0.000000 0.000000
									}
								}
							}
						}
					}
				}
			}
		}
	}
	JOINT RightUpLeg
	{
		OFFSET -11.289943 0.000000 0.000000
		CHANNELS 3 Zrotation Yrotation Xrotation
		JOINT RightLeg
		{
			OFFSET 0.000000 -38.200325 0.000000
			CHANNELS 3 Zrotation Yrotation Xrotation
			JOINT RightFoot
			{
				OFFSET -0.000000 -39.900856 -0.000000
				CHANNELS 3 Zrotation Yrotation Xrotation
				JOINT RightToeBase
				{
					OFFSET 0.000000 0.000000 15.261641
					CHANNELS 3 Zrotation Yrotation Xrotation
					JOINT RightToeBaseEnd
					{
						OFFSET 0.000000 0.000000 7.370709
						CHANNELS 3 Zrotation Yrotation Xrotation
						End Site
						{
							OFFSET 0.000000 0.000000 0.000000
						}
					}
				}
				JOINT RightLegEnd
				{
					OFFSET 0.000000 0.000000 0.000000
					CHANNELS 3 Zrotation Yrotation Xrotation
					End Site
					{
						OFFSET 0.000000 0.000000 0.000000
					}
				}
			}
			JOINT RightUpLegEnd
			{
				OFFSET 0.000000 0.000000 0.000000
				CHANNELS 3 Zrotation Yrotation Xrotation
				End Site
				{
					OFFSET 0.000000 0.000000 0.000000
				}
			}
		}
	}
	JOINT LeftUpLeg
	{
		OFFSET 11.315661 -0.000000 0.000000
		CHANNELS 3 Zrotation Yrotation Xrotation
		JOINT LeftLeg
		{
			OFFSET -0.000000 -38.200325 -0.000000
			CHANNELS 3 Zrotation Yrotation Xrotation
			JOINT LeftFoot
			{
				OFFSET 0.000000 -39.900856 -0.000000
				CHANNELS 3 Zrotation Yrotation Xrotation
				JOINT LeftToeBase
				{
					OFFSET -0.000000 -0.000000 15.261641
					CHANNELS 3 Zrotation Yrotation Xrotation
					JOINT LeftToeBaseEnd
					{
						OFFSET 0.000000 -0.000000 7.539996
						CHANNELS 3 Zrotation Yrotation Xrotation
						End Site
						{
							OFFSET 0.000000 0.000000 0.000000
						}
					}
				}
				JOINT LeftLegEnd
				{
					OFFSET 0.000000 0.000000 0.000000
					CHANNELS 3 Zrotation Yrotation Xrotation
					End Site
					{
						OFFSET 0.000000 0.000000 0.000000
					}
				}
			}
			JOINT LeftUpLegEnd
			{
				OFFSET 0.000000 0.000000 0.000000
				CHANNELS 3 Zrotation Yrotation Xrotation
				End Site
				{
					OFFSET 0.000000 0.000000 0.000000
				}
			}
		}
	}
}
MOTION
Frames: 4
Frame Time: 0.016667
0.554479 88.631950 3.437558 0.166969 -1.236615 -11.417218 0.838141 0.228279 6.907460 -0.936414 0.378242 2.466213 0.019216 0.150296 5.988912 -1.590055 0.515032 5.566854 0.414342 -0.313643 6.718403 -0.001381 -0.561174 -2.441444 0.094762 -0.851565 -21.056726 0.000000 0.000000 0.000000 92.068085 -0.386796 8.212763 67.081779 -15.935824 -0.327710 -0.681447 19.055796 69.921326 -0.990414 14.058611 -0.695527 17.607252 30.810251 64.155266 -6.106852 -8.042261 -14.047705 -4.429975 -5.214706 -9.602522 0.000000 0.000000 0.000000 -4.562129 -8.028717 11.479399 1.785494 0.489587 0.591712 1.404139 0.058232 0.626506 0.000000 0.000000 0.000000 -3.520157 -2.792927 6.799200 0.701869 0.499175 0.219381 1.369703 -0.001675 0.196102 0.000000 0.000000 0.000000 -1.082777 4.701909 0.823280 1.738730 -0.979294 -0.460597 1.958493 -0.002363 -0.311339 0.000000 0.000000 0.000000 -0.955079 12.951176 -5.659555 2.798781 -1.865323 -1.329118 2.739770 0.090243 -1.075467 0.000000 0.000000 0.000000 0.000000 0.000000 0.000000 0.000000 0.000000 0.000000 -89.456375 0.628012 2.855299 -69.852661 9.511353 -8.089165 0.399167 -14.933485 83.681488 -16.201458 -18.052801 -0.646881 -18.486811 -30.543983 63.287464 7.089298 9.620891 -16.539696 5.204773 6.498208 -11.586896 0.000000 0.000000 0.000000 -9.507003 -7.303967 12.587569 -6.901690 0.575883 -0.122571 -6.863324 0.087009 -0.189913 0.000000 0.000000 0.000000 -9.807146 -1.811017 7.259798 -7.153964 0.526493 -0.152494 -7.423542 0.022020 -0.118181 0.000000 0.000000 0.000000 -15.177996 6.843308 0.996126 -10.123672 -1.007313 0.439195 -10.369361 -0.008590 0.336962 0.000000 0.000000 0.000000 -20.613077 15.792232 -6.077865 -12.846006 -1.861200 1.913636 -12.447471 0.168161 1.660832 0.000000 0.000000 0.000000 0.000000 0.000000 0.000000 0.000000 0.000000 0.000000 -1.491942 -9.324806 15.692472 -0.075813 -0.718627 5.267610 -2.491349 -7.401552 16.780287 -0.875883 0.883022 -18.582909 0.000000 0.000000 0.000000 0.000000 0.000000 0.000000 0.000000 0.000000 0.000000 -1.944091 -6.055867 10.105745 0.069171 0.289919 11.080054 3.929048 -1.068785 16.175447 0.210541 -0.388500 -20.714334 0.000000 0.000000 0.000000 0.000000 0.000000 0.000000 0.000000 0.000000 0.000000 
0.556405 88.618500 3.430510 0.185280 -1.238227 -11.455756 0.816908 0.233007 6.910639 -0.909259 0.385792 2.444922 -0.045030 0.160985 6.057985 -1.608143 0.507251 5.611599 0.525749 -0.380320 6.953208 0.023097 -0.555674 -2.313463 0.110896 -0.856055 -21.094732 0.000000 0.000000 0.000000 92.058311 -0.386630 8.186671 67.088638 -15.767373 -0.343373 -0.690811 18.954432 70.382889 -1.312007 13.821445 -0.577753 17.470036 30.861650 64.307022 -5.931507 -7.765280 -13.609578 -4.299718 -5.032807 -9.287072 0.000000 0.000000 0.000000 -5.691032 -7.833150 11.856694 1.572579 0.504200 0.510709 1.184651 0.073008 0.552574 0.000000 0.000000 0.000000 -4.617207 -2.602400 6.991035 0.500590 0.505132 0.185224 1.164158 0.004135 0.167255 0.000000 0.000000 0.000000 -2.201671 4.903783 0.787392 1.487850 -0.987131 -0.419153 1.703822 -0.009573 -0.277758 0.000000 0.000000 0.000000 -2.070852 13.136406 -5.900620 2.539358 -1.883755 -1.217455 2.484856 0.072138 -0.982199 0.000000 0.000000 0.000000 0.000000 0.000000 0.000000 0.000000 0.000000 0.000000 -89.533653 0.635794 2.840996 -69.723625 9.760747 -7.887721 0.475227 -14.678266 84.523911 -15.791943 -17.550703 -0.377543 -18.092751 -30.670689 63.688450 6.659504 8.839874 -15.323804 4.861408 5.985462 -10.742044 0.000000 0.000000 0.000000 -6.638741 -7.834583 13.871932 -5.518217 0.592982 -0.051287 -5.486095 0.104750 -0.125952 0.000000 0.000000 0.000000 -7.065652 -2.304530 8.102506 -5.771983 0.534679 -0.121439 -6.055784 0.029595 -0.093021 0.000000 0.000000 0.000000 -12.463379 6.401176 1.269288 -8.673785 -1.020219 0.393571 -8.918576 -0.018945 0.302556 0.000000 0.000000 0.000000 -18.213758 15.489485 -6.393758 -11.504462 -1.898457 1.779189 -11.107749 0.137115 1.553071 0.000000 0.000000 0.000000 0.000000 0.000000 0.000000 0.000000 0.000000 0.000000 -1.496259 -9.335174 15.732965 -0.078085 -0.721693 5.290884 -2.511303 -7.400550 16.742117 -0.869316 0.880351 -18.583279 0.000000 0.000000 0.000000 0.000000 0.000000 0.000000 0.000000 0.000000 0.000000 -1.944113 -6.090168 10.130030 0.069609 0.292672 11.132415 3.904779 -1.109261 16.169180 0.205283 -0.389441 -20.718979 0.000000 0.000000 0.000000 0.000000 0.000000 0.000000 0.000000 0.000000 0.000000 
0.556086 88.605408 3.423239 0.195985 -1.242224 -11.490714 0.800143 0.236564 6.908731 -0.884931 0.392545 2.431891 -0.103365 0.165254 6.110600 -1.619944 0.498446 5.655788 0.637324 -0.430326 7.155798 0.050527 -0.531415 -2.201952 0.121058 -0.862175 -21.119989 0.000000 0.000000 0.000000 92.039604 -0.382690 8.177059 67.108223 -15.720469 -0.370116 -0.696224 18.859531 70.707718 -1.593174 13.573296 -0.536165 17.347414 30.907639 64.443573 -5.775529 -7.515586 -13.218024 -4.183634 -4.868629 -9.003580 0.000000 0.000000 0.000000 -6.711074 -7.654363 12.157702 1.410329 0.514489 0.444362 1.015613 0.083654 0.492276 0.000000 0.000000 0.000000 -5.613568 -2.428705 7.135194 0.349316 0.509336 0.157147 1.009220 0.008509 0.143373 0.000000 0.000000 0.000000 -3.218726 5.086617 0.744771 1.292882 -0.992279 -0.385445 1.504050 -0.014743 -0.250069 0.000000 0.000000 0.000000 -3.089959 13.302849 -6.112407 2.332868 -1.894914 -1.127500 2.281899 0.060038 -0.906978 0.000000 0.000000 0.000000 0.000000 0.000000 0.000000 0.000000 0.000000 0.000000 -89.603081 0.639361 2.846312 -69.641411 10.077571 -7.717540 0.549293 -14.429407 85.287949 -15.188521 -16.944668 -0.173433 -17.717804 -30.796515 64.077812 6.233108 8.095566 -14.153489 4.524995 5.495608 -9.926468 0.000000 0.000000 0.000000 -3.854243 -8.352630 15.089791 -4.379516 0.604845 0.003472 -4.350541 0.117500 -0.076753 0.000000 0.000000 0.000000 -4.387910 -2.788862 8.916642 -4.625891 0.540445 -0.096856 -4.922415 0.035244 -0.073070 0.000000 0.000000 0.000000 -9.777772 5.962215 1.552846 -7.433594 -1.029445 0.355179 -7.674605 -0.026770 0.273628 0.000000 0.000000 0.000000 -15.803812 15.189276 -6.656585 -10.325205 -1.925766 1.659477 -9.930429 0.113588 1.457105 0.000000 0.000000 0.000000 0.000000 0.000000 0.000000 0.000000 0.000000 0.000000 -1.491637 -9.349329 15.774610 -0.080506 -0.724526 5.306352 -2.534606 -7.399865 16.706388 -0.862382 0.876632 -18.581511 0.000000 0.000000 0.000000 0.000000 0.000000 0.000000 0.000000 0.000000 0.000000 -1.932000 -6.118050 10.151041 0.070463 0.295750 11.175963 3.877906 -1.144072 16.160934 0.202471 -0.389907 -20.721882 0.000000 0.000000 0.000000 0.000000 0.000000 0.000000 0.000000 0.000000 0.000000 
0.553958 88.592751 3.416492 0.200540 -1.245856 -11.523822 0.786194 0.239058 6.903482 -0.863114 0.398158 2.425943 -0.156802 0.165195 6.148324 -1.625041 0.489275 5.698936 0.745178 -0.464589 7.325651 0.078682 -0.493551 -2.107388 0.126120 -0.869061 -21.135149 0.000000 0.000000 0.000000 92.016937 -0.375893 8.179312 67.136421 -15.775214 -0.411659 -0.698857 18.775599 70.917297 -1.820059 13.368535 -0.565986 17.240604 30.947311 64.562584 -5.642137 -7.296214 -12.878418 -4.083854 -4.724312 -8.756163 0.000000 0.000000 0.000000 -7.609937 -7.493392 12.390047 1.274745 0.521485 0.390543 0.872601 0.091189 0.443545 0.000000 0.000000 0.000000 -6.492316 -2.274227 7.236546 0.223857 0.512206 0.134328 0.880792 0.011736 0.123731 0.000000 0.000000 0.000000 -4.107902 5.245515 0.693309 1.131922 -0.995362 -0.358413 1.337482 -0.018335 -0.227505 0.000000 0.000000 0.000000 -3.978647 13.444988 -6.304401 2.164322 -1.900748 -1.055742 2.115783 0.052459 -0.846698 0.000000 0.000000 0.000000 0.000000 0.000000 0.000000 0.000000 0.000000 0.000000 -89.665085 0.639208 2.866684 -69.603561 10.436182 -7.579679 0.618440 -14.193794 85.980492 -14.442573 -16.259930 -0.003307 -17.364477 -30.919643 64.452034 5.815828 7.392536 -13.038312 4.199185 5.031863 -9.146446 0.000000 0.000000 0.000000 -1.181284 -8.851147 16.227953 -3.496675 0.612832 0.045315 -3.467781 0.126533 -0.039040 0.000000 0.000000 0.000000 -1.800145 -3.257747 9.690993 -3.728791 0.544421 -0.077411 -4.036594 0.039443 -0.057231 0.000000 0.000000 0.000000 -7.154825 5.532604 1.840710 -6.424061 -1.035867 0.322715 -6.659088 -0.032579 0.249190 0.000000 0.000000 0.000000 -13.421504 14.894559 -6.866568 -9.332381 -1.945347 1.551314 -8.940066 0.095823 1.370318 0.000000 0.000000 0.000000 0.000000 0.000000 0.000000 0.000000 0.000000 0.000000 -1.479915 -9.367126 15.818659 -0.082955 -0.727181 5.316073 -2.559836 -7.399976 16.671080 -0.855194 0.872377 -18.577141 0.000000 0.000000 0.000000 0.000000 0.000000 0.000000 0.000000 0.000000 0.000000 -1.908981 -6.139899 10.170552 0.071697 0.299048 11.211475 3.849312 -1.177373 16.150452 0.201957 -0.390268 -20.723202 0.000000 0.000000 0.000000 0.000000 0.000000 0.000000 0.000000 0.000000 0.000000 
